<svg width="78" height="75" viewBox="0 0 78 75" fill="none" xmlns="http://www.w3.org/2000/svg">
<g filter="url(#filter0_d)">
<path d="M56.352 13.3546H21.4376C20.961 13.3546 20.5748 13.8207 20.5748 14.3959V55.6045C20.5748 56.1797 20.961 56.6457 21.4376 56.6457H56.352C56.8285 56.6457 57.2147 56.1797 57.2147 55.6045V14.3959C57.2147 13.8207 56.8285 13.3546 56.352 13.3546ZM55.4892 54.5631H22.3003V15.4371H55.4892V54.5631Z" fill="url(#paint0_radial)"/>
<path d="M48.2581 33.3912C48.1594 33.0692 47.8921 32.8378 47.5743 32.7993L41.8029 32.101L39.392 26.5061C39.2047 26.0717 38.7204 25.8798 38.31 26.0784C37.8996 26.2766 37.7186 26.7892 37.9059 27.2238L40.5083 33.2633C40.6272 33.5393 40.8738 33.7291 41.1587 33.7635L45.6099 34.302L42.3078 37.5077C42.0967 37.7126 42.0024 38.0197 42.0595 38.317L42.9512 42.9649L39.051 40.631C38.8018 40.4817 38.4965 40.4817 38.2473 40.631L34.347 42.9651L35.2387 38.3172C35.2957 38.02 35.2015 37.7129 34.9905 37.5079L31.6883 34.3022L36.1396 33.7637C36.5877 33.7095 36.9095 33.2809 36.8583 32.8065C36.8071 32.332 36.4008 31.9908 35.9541 32.0457L29.724 32.7994C29.4061 32.8378 29.1388 33.0692 29.04 33.3913C28.9412 33.7133 29.0289 34.0668 29.2647 34.2956L33.5461 38.4519L32.3901 44.4783C32.3264 44.8101 32.4516 45.1507 32.7104 45.3498C32.9691 45.5489 33.3137 45.5697 33.5923 45.403L38.6492 42.3767L43.706 45.403C43.8311 45.4779 43.9696 45.515 44.1077 45.515C44.2769 45.515 44.4455 45.4594 44.5878 45.3498C44.8467 45.1507 44.9718 44.81 44.9081 44.4783L43.7521 38.4519L48.0335 34.2956C48.2692 34.0668 48.3572 33.7133 48.2581 33.3912Z" fill="url(#paint1_radial)"/>
<path d="M63.9272 44.919H59.362C58.8854 44.919 58.4993 45.385 58.4993 45.9602V50.8647C58.4993 51.4399 58.8854 51.906 59.362 51.906H63.9272C64.4037 51.906 64.7899 51.4399 64.7899 50.8647V45.9602C64.7899 45.385 64.4037 44.919 63.9272 44.919ZM63.0644 49.8235H60.2249V47.0015H63.0644V49.8235Z" fill="url(#paint2_radial)"/>
<path d="M67.1374 9.80212H63.927C63.4504 9.80212 63.0642 10.2682 63.0642 10.8434V14.7062H60.2247V10.8434C60.2247 10.2682 59.8385 9.80212 59.3619 9.80212H29.5644C29.0878 9.80212 28.7016 10.2682 28.7016 10.8434C28.7016 11.4186 29.0878 11.8846 29.5644 11.8846H58.4992V15.7475C58.4992 16.3227 58.8854 16.7887 59.3619 16.7887H63.9271C64.4037 16.7887 64.7898 16.3227 64.7898 15.7475V11.8848H66.2747V58.1156H64.7897V54.7398C64.7897 54.1646 64.4035 53.6985 63.927 53.6985H59.3618C58.8853 53.6985 58.4991 54.1646 58.4991 54.7398V58.1156H19.2907V54.7398C19.2907 54.1646 18.9045 53.6985 18.4279 53.6985H14.0731C13.5966 53.6985 13.2104 54.1646 13.2104 54.7398V58.1156H11.7255V11.8848H13.2104V15.7476C13.2104 16.3228 13.5966 16.7889 14.0731 16.7889H18.4277C18.9043 16.7889 19.2904 16.3228 19.2904 15.7476V11.8848H22.6733C23.1498 11.8848 23.536 11.4187 23.536 10.8435C23.536 10.2683 23.1498 9.80226 22.6733 9.80226H18.4279C17.9513 9.80226 17.5652 10.2683 17.5652 10.8435V14.7064H14.936V10.8434C14.936 10.2682 14.5498 9.80212 14.0733 9.80212H10.8628C10.3862 9.80212 10 10.2682 10 10.8434V59.1567C10 59.7319 10.3862 60.198 10.8628 60.198H14.0731C14.5497 60.198 14.9359 59.7319 14.9359 59.1567V55.7809H17.5649V59.1567C17.5649 59.7319 17.9511 60.198 18.4277 60.198H59.3618C59.8384 60.198 60.2246 59.7319 60.2246 59.1567V55.7809H63.0641V59.1567C63.0641 59.7319 63.4503 60.198 63.9269 60.198H67.1372C67.6138 60.198 68 59.7319 68 59.1567V10.8434C68.0001 10.2682 67.6139 9.80212 67.1374 9.80212Z" fill="url(#paint3_radial)"/>
<path d="M18.4278 36.1398H14.0731C13.5965 36.1398 13.2103 36.6059 13.2103 37.1811V42.0856C13.2103 42.6608 13.5965 43.1268 14.0731 43.1268H18.4276C18.9042 43.1268 19.2904 42.6608 19.2904 42.0856V37.1811H19.2905C19.2906 36.6059 18.9044 36.1398 18.4278 36.1398ZM17.5649 41.0443H14.9359V38.2223H17.5649V41.0443Z" fill="url(#paint4_radial)"/>
<path d="M18.4278 27.3604H14.0731C13.5965 27.3604 13.2103 27.8265 13.2103 28.4016V33.3063C13.2103 33.8815 13.5965 34.3475 14.0731 34.3475H18.4276C18.9042 34.3475 19.2904 33.8815 19.2904 33.3063V28.4016H19.2905C19.2906 27.8265 18.9044 27.3604 18.4278 27.3604ZM17.5649 32.265H14.9359V29.4429H17.5649V32.265Z" fill="url(#paint5_radial)"/>
<path d="M63.9272 18.5813H59.362C58.8854 18.5813 58.4993 19.0473 58.4993 19.6225V24.527C58.4993 25.1021 58.8854 25.5683 59.362 25.5683H63.9272C64.4037 25.5683 64.7899 25.1022 64.7899 24.527V19.6225C64.7899 19.0473 64.4037 18.5813 63.9272 18.5813ZM63.0644 23.4856H60.2249V20.6636H63.0644V23.4856Z" fill="url(#paint6_radial)"/>
<path d="M18.4278 18.5811H14.0731C13.5965 18.5811 13.2103 19.0472 13.2103 19.6223V24.5269C13.2103 25.102 13.5965 25.5681 14.0731 25.5681H18.4276C18.9042 25.5681 19.2904 25.102 19.2904 24.5269V19.6223H19.2905C19.2906 19.0472 18.9044 18.5811 18.4278 18.5811ZM17.5649 23.4857H14.9359V20.6637H17.5649V23.4857Z" fill="url(#paint7_radial)"/>
<path d="M18.4278 44.919H14.0731C13.5965 44.919 13.2103 45.385 13.2103 45.9602V50.8647C13.2103 51.4399 13.5965 51.906 14.0731 51.906H18.4276C18.9042 51.906 19.2904 51.4399 19.2904 50.8647V45.9602C19.2906 45.385 18.9043 44.919 18.4278 44.919ZM17.5649 49.8235H14.9359V47.0015H17.5649V49.8235Z" fill="url(#paint8_radial)"/>
<path d="M63.9272 36.1398H59.362C58.8854 36.1398 58.4993 36.6059 58.4993 37.1811V42.0856C58.4993 42.6608 58.8854 43.1268 59.362 43.1268H63.9272C64.4037 43.1268 64.7899 42.6608 64.7899 42.0856V37.1811C64.7899 36.6059 64.4037 36.1398 63.9272 36.1398ZM63.0644 41.0443H60.2249V38.2223H63.0644V41.0443Z" fill="url(#paint9_radial)"/>
<path d="M63.9272 27.3604H59.362C58.8854 27.3604 58.4993 27.8265 58.4993 28.4016V33.3063C58.4993 33.8815 58.8854 34.3475 59.362 34.3475H63.9272C64.4037 34.3475 64.7899 33.8815 64.7899 33.3063V28.4016C64.7899 27.8265 64.4037 27.3604 63.9272 27.3604ZM63.0644 32.265H60.2249V29.4429H63.0644V32.265Z" fill="url(#paint10_radial)"/>
</g>
<defs>
<filter id="filter0_d" x="0" y="-6" width="78" height="90" filterUnits="userSpaceOnUse" color-interpolation-filters="sRGB">
<feFlood flood-opacity="0" result="BackgroundImageFix"/>
<feColorMatrix in="SourceAlpha" type="matrix" values="0 0 0 0 0 0 0 0 0 0 0 0 0 0 0 0 0 0 127 0"/>
<feOffset dy="4"/>
<feGaussianBlur stdDeviation="5"/>
<feColorMatrix type="matrix" values="0 0 0 0 0 0 0 0 0 0 0 0 0 0 0 0 0 0 0.15 0"/>
<feBlend mode="normal" in2="BackgroundImageFix" result="effect1_dropShadow"/>
<feBlend mode="normal" in="SourceGraphic" in2="effect1_dropShadow" result="shape"/>
</filter>
<radialGradient id="paint0_radial" cx="0" cy="0" r="1" gradientUnits="userSpaceOnUse" gradientTransform="translate(49.5321 34.5758) rotate(158.385) scale(23.0429 141.754)">
<stop stop-color="#B772EE"/>
<stop offset="1" stop-color="#7041EE"/>
</radialGradient>
<radialGradient id="paint1_radial" cx="0" cy="0" r="1" gradientUnits="userSpaceOnUse" gradientTransform="translate(44.2518 35.5662) rotate(161.267) scale(11.9144 65.0929)">
<stop stop-color="#B772EE"/>
<stop offset="1" stop-color="#7041EE"/>
</radialGradient>
<radialGradient id="paint2_radial" cx="0" cy="0" r="1" gradientUnits="userSpaceOnUse" gradientTransform="translate(63.4709 48.344) rotate(159.57) scale(3.92486 23.0612)">
<stop stop-color="#B772EE"/>
<stop offset="1" stop-color="#7041EE"/>
</radialGradient>
<radialGradient id="paint3_radial" cx="0" cy="0" r="1" gradientUnits="userSpaceOnUse" gradientTransform="translate(55.8387 34.506) rotate(163.754) scale(35.3217 170.413)">
<stop stop-color="#B772EE"/>
<stop offset="1" stop-color="#7041EE"/>
</radialGradient>
<radialGradient id="paint4_radial" cx="0" cy="0" r="1" gradientUnits="userSpaceOnUse" gradientTransform="translate(18.0156 39.5648) rotate(158.924) scale(3.80978 22.9629)">
<stop stop-color="#B772EE"/>
<stop offset="1" stop-color="#7041EE"/>
</radialGradient>
<radialGradient id="paint5_radial" cx="0" cy="0" r="1" gradientUnits="userSpaceOnUse" gradientTransform="translate(18.0156 30.7855) rotate(158.924) scale(3.80979 22.9633)">
<stop stop-color="#B772EE"/>
<stop offset="1" stop-color="#7041EE"/>
</radialGradient>
<radialGradient id="paint6_radial" cx="0" cy="0" r="1" gradientUnits="userSpaceOnUse" gradientTransform="translate(63.4709 22.0063) rotate(159.57) scale(3.92486 23.0612)">
<stop stop-color="#B772EE"/>
<stop offset="1" stop-color="#7041EE"/>
</radialGradient>
<radialGradient id="paint7_radial" cx="0" cy="0" r="1" gradientUnits="userSpaceOnUse" gradientTransform="translate(18.0156 22.0061) rotate(158.924) scale(3.80978 22.9629)">
<stop stop-color="#B772EE"/>
<stop offset="1" stop-color="#7041EE"/>
</radialGradient>
<radialGradient id="paint8_radial" cx="0" cy="0" r="1" gradientUnits="userSpaceOnUse" gradientTransform="translate(18.0155 48.344) rotate(158.924) scale(3.80972 22.9629)">
<stop stop-color="#B772EE"/>
<stop offset="1" stop-color="#7041EE"/>
</radialGradient>
<radialGradient id="paint9_radial" cx="0" cy="0" r="1" gradientUnits="userSpaceOnUse" gradientTransform="translate(63.4709 39.5648) rotate(159.57) scale(3.92486 23.0613)">
<stop stop-color="#B772EE"/>
<stop offset="1" stop-color="#7041EE"/>
</radialGradient>
<radialGradient id="paint10_radial" cx="0" cy="0" r="1" gradientUnits="userSpaceOnUse" gradientTransform="translate(63.4709 30.7855) rotate(159.57) scale(3.92487 23.0617)">
<stop stop-color="#B772EE"/>
<stop offset="1" stop-color="#7041EE"/>
</radialGradient>
</defs>
</svg>
