<svg width="78" height="80" viewBox="0 0 78 80" fill="none" xmlns="http://www.w3.org/2000/svg">
<g filter="url(#filter0_d)">
<path d="M67.3588 61.1596C67.3706 61.1434 67.3822 61.1273 67.3933 61.1106C67.4014 61.0982 67.4088 61.0853 67.4163 61.0726C67.4276 61.0536 67.4388 61.0345 67.4492 61.0149C67.4553 61.0031 67.4607 60.9911 67.4663 60.9792C67.4763 60.9582 67.4863 60.937 67.4949 60.9152C67.4999 60.9027 67.5041 60.89 67.5088 60.8773C67.5165 60.8559 67.5242 60.8348 67.5307 60.8129C67.5353 60.7971 67.5389 60.7816 67.5428 60.7657C67.5475 60.7465 67.5525 60.7274 67.5563 60.7079C67.5604 60.6867 67.5631 60.6656 67.566 60.6443C67.5679 60.6293 67.5705 60.6148 67.5718 60.5997C67.5746 60.5726 67.5753 60.5455 67.5759 60.5183C67.5761 60.5094 67.5773 60.5009 67.5773 60.492C67.5773 60.4888 67.5771 60.4858 67.5771 60.4825C67.5771 60.4784 67.5771 60.4742 67.577 60.4701C67.5747 53.1042 66.4253 46.5706 64.1598 41.0507C62.3295 36.5916 59.7727 32.7813 56.5602 29.7258C52.3393 25.7111 48.1342 24.0772 46.2984 23.5114L47.5295 12.9603C48.6017 13.4219 49.6837 13.6561 50.7622 13.6561C53.5589 13.6561 55.3247 12.0671 55.3985 11.9996C55.6329 11.7847 55.7664 11.4814 55.7664 11.1636C55.7664 8.31627 53.4501 6 50.6028 6C48.03 6 45.8912 7.89139 45.5028 10.3567C42.2867 9.76509 39.6891 11.3308 38.4362 12.3079C35.8041 10.317 32.7145 10.3155 30.9919 10.5225C30.6748 7.97697 28.4992 6 25.869 6C23.0217 6 20.7054 8.31627 20.7054 11.1636C20.7054 11.4815 20.8388 11.7846 21.0732 11.9994C21.1469 12.067 22.9125 13.6561 25.7096 13.6561C26.7882 13.6561 27.8702 13.4219 28.9425 12.9603L30.1755 23.5309C28.4385 24.1128 24.5448 25.7606 20.6459 29.7553C17.6628 32.8118 15.2892 36.6211 13.5912 41.0776C11.4887 46.5953 10.4229 53.1272 10.4229 60.4921C10.4229 60.4947 10.4232 60.4971 10.4232 60.4996C10.4235 60.5263 10.4252 60.5528 10.4273 60.5792C10.4282 60.591 10.4285 60.6028 10.4297 60.6146C10.4321 60.6365 10.4359 60.6579 10.4395 60.6795C10.4423 60.6957 10.4444 60.7118 10.4477 60.7277C10.4507 60.7421 10.455 60.7558 10.4586 60.7701C10.4642 60.7923 10.4695 60.8147 10.4764 60.8364C10.4786 60.8429 10.4811 60.849 10.4834 60.8553C10.4931 60.8839 10.503 60.9122 10.5148 60.9397C10.5153 60.9408 10.5159 60.942 10.5165 60.943C10.5304 60.9751 10.5455 61.0065 10.5623 61.0369C10.5652 61.0425 10.569 61.0475 10.572 61.0531C10.5867 61.0788 10.6016 61.1042 10.6183 61.1284C10.6311 61.1476 10.6456 61.1656 10.6597 61.1839C10.6674 61.1939 10.6745 61.2046 10.6825 61.2143C10.702 61.2379 10.7232 61.2607 10.7448 61.2828C10.7485 61.2864 10.7518 61.2906 10.7554 61.2943C10.7749 61.3138 10.7959 61.3321 10.8168 61.3501C10.8236 61.356 10.8301 61.3625 10.8371 61.3682C10.8534 61.3817 10.8709 61.3938 10.888 61.4063C10.9012 61.416 10.9139 61.426 10.9275 61.435C10.9399 61.4434 10.953 61.4505 10.9657 61.4582C10.9855 61.4704 11.0053 61.4825 11.0259 61.4936C11.0353 61.4984 11.0451 61.5026 11.0545 61.5073C11.0794 61.5197 11.1045 61.5315 11.1304 61.5421C11.1325 61.543 11.1343 61.5442 11.1364 61.545C11.3945 61.6479 17.5704 64.0799 27.5531 65.3167C30.7235 65.7095 34.4953 65.9997 38.7263 65.9997C46.7612 65.9997 56.4468 64.9525 66.7749 61.5761C66.7792 61.5748 66.7836 61.5734 66.788 61.572C66.7906 61.5711 66.7932 61.5702 66.7957 61.5695C66.8022 61.5672 66.8083 61.5643 66.8148 61.5622C66.8429 61.5525 66.8706 61.5421 66.8975 61.5303C66.9091 61.5253 66.92 61.5194 66.9315 61.5141C66.9531 61.5038 66.9747 61.4933 66.9958 61.4816C67.0109 61.4732 67.0252 61.4639 67.0399 61.4547C67.0559 61.445 67.0721 61.4351 67.0875 61.4243C67.1042 61.4128 67.1201 61.4007 67.1358 61.3883C67.1486 61.3783 67.1615 61.3687 67.1739 61.3582C67.1896 61.3449 67.2047 61.3307 67.2198 61.3167C67.2313 61.3058 67.2431 61.295 67.2543 61.2835C67.2679 61.2695 67.2806 61.255 67.2933 61.2405C67.3051 61.2271 67.3168 61.2141 67.328 61.2002C67.3388 61.1872 67.3488 61.1733 67.3588 61.1596ZM50.6027 8.26804C52.0146 8.26804 53.1937 9.28397 53.4476 10.6229C52.9368 10.9384 51.9927 11.3883 50.7621 11.3883C49.785 11.3883 48.7813 11.1094 47.7707 10.5583C48.0498 9.25131 49.2136 8.26804 50.6027 8.26804ZM37.659 14.6217C37.8789 14.8328 38.1618 14.9379 38.4442 14.9379C38.7416 14.9379 39.0387 14.8213 39.2612 14.5903C39.2896 14.5609 41.8971 11.9102 45.2845 12.6308L44.015 23.5133C38.4128 26.6682 33.6807 24.4149 32.4826 23.7336L31.2055 12.7863C32.6658 12.6082 35.5364 12.5843 37.659 14.6217ZM25.7095 11.3883C24.4772 11.3883 23.5323 10.9374 23.0238 10.6235C23.2777 9.28412 24.4571 8.26804 25.869 8.26804C27.2581 8.26804 28.4219 9.25131 28.701 10.5581C27.6902 11.1094 26.6866 11.3883 25.7095 11.3883ZM15.6716 41.988C17.2414 37.8316 19.4264 34.2845 22.1662 31.4456C24.6001 28.9235 27.0349 27.4342 28.6487 26.6287C29.7789 26.0649 30.6741 25.7489 31.1721 25.5937C31.3643 25.7088 31.6644 25.8771 32.0604 26.0665C31.4147 26.8771 29.9758 28.772 29.3367 30.3241C29.0982 30.9032 29.3745 31.5661 29.9536 31.8045C30.095 31.8627 30.241 31.8901 30.385 31.8901C30.8309 31.8901 31.2538 31.6253 31.434 31.1875C32.1193 29.5233 34.0993 27.1531 34.1192 27.1293C34.1803 27.0566 34.2293 26.978 34.2692 26.8962C35.094 27.1295 36.0476 27.3176 37.1023 27.3906V34.2295C37.1023 34.8559 37.61 35.3635 38.2363 35.3635C38.8626 35.3635 39.3702 34.8559 39.3702 34.2295V27.3587C40.2564 27.2713 41.1893 27.0909 42.1571 26.7873C42.2011 26.9087 42.2655 27.0247 42.3532 27.1295C42.3732 27.1532 44.3533 29.5235 45.0384 31.1876C45.2187 31.6255 45.6416 31.8902 46.0875 31.8902C46.2313 31.8902 46.3775 31.8626 46.5189 31.8047C47.098 31.5662 47.3741 30.9033 47.1358 30.3242C46.4557 28.6724 44.8709 26.634 44.2988 25.9258C44.5555 25.7995 44.8136 25.6658 45.0737 25.5205C46.0322 25.7675 50.507 27.0982 54.9975 31.3694C57.977 34.2032 60.3539 37.7502 62.062 41.9121C63.5984 45.6557 64.5919 49.9101 65.0374 54.6075C39.2546 62.6816 17.6324 56.2555 12.9406 54.6461C13.3485 49.966 14.2606 45.7242 15.6716 41.988ZM27.9127 63.0762C20.1026 62.1156 14.5914 60.3647 12.6981 59.7021C12.708 58.7816 12.7349 57.875 12.7797 56.9832C15.435 57.8535 21.35 59.5467 29.3146 60.3762C32.5213 60.7102 35.7171 60.877 38.8963 60.877C47.8416 60.877 56.6546 59.5536 65.2108 56.9272C65.2603 57.8246 65.2901 58.7379 65.3015 59.6648C50.272 64.4216 36.7066 64.1574 27.9127 63.0762Z" fill="url(#paint0_radial)"/>
</g>
<defs>
<filter id="filter0_d" x="-1" y="0" width="80" height="80" filterUnits="userSpaceOnUse" color-interpolation-filters="sRGB">
<feFlood flood-opacity="0" result="BackgroundImageFix"/>
<feColorMatrix in="SourceAlpha" type="matrix" values="0 0 0 0 0 0 0 0 0 0 0 0 0 0 0 0 0 0 127 0"/>
<feOffset dy="4"/>
<feGaussianBlur stdDeviation="5"/>
<feColorMatrix type="matrix" values="0 0 0 0 0 0 0 0 0 0 0 0 0 0 0 0 0 0 0.15 0"/>
<feBlend mode="normal" in2="BackgroundImageFix" result="effect1_dropShadow"/>
<feBlend mode="normal" in="SourceGraphic" in2="effect1_dropShadow" result="shape"/>
</filter>
<radialGradient id="paint0_radial" cx="0" cy="0" r="1" gradientUnits="userSpaceOnUse" gradientTransform="translate(55.5933 35.4116) rotate(160.605) scale(35.4273 199.334)">
<stop stop-color="#B772EE"/>
<stop offset="1" stop-color="#7041EE"/>
</radialGradient>
</defs>
</svg>
