<svg width="74" height="80" viewBox="0 0 74 80" fill="none" xmlns="http://www.w3.org/2000/svg">
<g filter="url(#filter0_d)">
<path d="M57.3074 41.0877C56.7761 41.0877 56.2564 41.1597 55.7578 41.3005C55.1421 38.8105 52.8889 36.9591 50.2115 36.9591C47.0611 36.9591 44.4982 39.5219 44.4982 42.6719V46.7815H29.5018V42.6719C29.5018 39.5219 26.9389 36.9591 23.7887 36.9591C21.1112 36.9591 18.858 38.8107 18.2422 41.3005C17.7437 41.1599 17.2241 41.0879 16.6928 41.0879C13.5428 41.0879 10.98 43.6506 10.98 46.8007V56.1586C10.98 59.3086 13.5429 61.8714 16.6929 61.8714C17.2241 61.8714 17.7437 61.7994 18.2422 61.6585C18.858 64.1484 21.1113 66 23.7887 66C26.9389 66 29.5017 63.4372 29.5017 60.2872V56.1779H44.4982V60.2872C44.4982 63.4372 47.0611 66 50.2112 66C52.8887 66 55.1419 64.1484 55.7577 61.6585C56.2562 61.7994 56.776 61.8714 57.307 61.8714C60.4572 61.8714 63.0199 59.3086 63.0199 56.1586V46.8007C63.0202 43.6505 60.4574 41.0877 57.3074 41.0877ZM18.0759 58.924C17.649 59.1404 17.1797 59.2529 16.6929 59.2529C14.9867 59.2529 13.5985 57.8648 13.5985 56.1586V46.8007C13.5985 45.0944 14.9866 43.7063 16.6928 43.7063C17.1798 43.7063 17.6493 43.8188 18.0759 44.0351V58.924ZM26.8834 60.2872C26.8834 61.9934 25.4951 63.3815 23.7889 63.3815C22.0827 63.3815 20.6944 61.9934 20.6944 60.2872V59.6486C20.6944 59.64 20.6944 59.6315 20.6944 59.623V43.3363C20.6944 43.3277 20.6944 43.319 20.6944 43.3102V42.6719C20.6944 40.9657 22.0825 39.5776 23.7887 39.5776C25.4951 39.5776 26.8834 40.9657 26.8834 42.6719V60.2872ZM44.4982 53.5594H29.5018V49.4001H44.4982V53.5594ZM53.3056 43.3101C53.3056 43.319 53.3056 43.3278 53.3056 43.3366V59.6228C53.3056 59.6314 53.3056 59.64 53.3056 59.6484V60.287C53.3056 61.9933 51.9175 63.3814 50.2112 63.3814C48.5048 63.3814 47.1167 61.9933 47.1167 60.287V54.8685V42.6719C47.1167 40.9657 48.5049 39.5776 50.2115 39.5776C51.9177 39.5776 53.3058 40.9657 53.3058 42.6719V43.3101H53.3056ZM60.4017 56.1584C60.4017 57.8647 59.0135 59.2527 57.3073 59.2527C56.8205 59.2527 56.3512 59.1403 55.9243 58.9238V44.035C56.3511 43.8187 56.8205 43.7062 57.3076 43.7062C59.0138 43.7062 60.4019 45.0943 60.4019 46.8005V56.1584H60.4017ZM30.0199 25.6372C30.0199 26.3603 29.4338 26.9464 28.7106 26.9464H26.3483C25.6252 26.9464 25.0391 26.3603 25.0391 25.6372C25.0391 24.9141 25.6252 24.3279 26.3483 24.3279H28.7106C29.4338 24.3279 30.0199 24.9141 30.0199 25.6372ZM30.0199 29.857C30.0199 30.5802 29.4338 31.1663 28.7106 31.1663H26.3483C25.6252 31.1663 25.0391 30.5802 25.0391 29.857C25.0391 29.1339 25.6252 28.5478 26.3483 28.5478H28.7106C29.4338 28.5478 30.0199 29.1339 30.0199 29.857ZM18.7221 35.6368C19.4453 35.6368 20.0314 35.0507 20.0314 34.3275V31.3947C21.7581 30.3823 22.8672 28.4995 22.8672 26.4594C22.8672 24.4195 21.7581 22.5365 20.0314 21.5241V21.4271C20.0314 19.7209 21.4194 18.3326 23.1257 18.3326H31.9333C33.4566 18.3326 34.7263 19.4388 34.9813 20.8902C33.1015 22.7356 31.695 25.7204 31.695 27.9887C31.695 30.7576 33.2229 32.4586 35.028 33.0078V42.8209C35.028 43.544 35.6141 44.1301 36.3373 44.1301C37.0604 44.1301 37.6465 43.544 37.6465 42.8209V33.0079C39.4515 32.4589 40.9795 30.7578 40.9795 27.9887C40.9795 25.6888 39.5333 22.6518 37.6138 20.8132C37.3577 18.4281 35.6275 16.4773 33.3552 15.8932V11.9047C33.3552 11.1815 32.7691 10.5954 32.046 10.5954H31.3632V7.30924C31.3632 6.5861 30.777 6 30.0539 6H25.0053C24.2822 6 23.6961 6.5861 23.6961 7.30924V10.5954H23.0131C22.29 10.5954 21.7038 11.1815 21.7038 11.9047V15.8932C19.2397 16.5269 17.413 18.7677 17.413 21.4271V22.3431C17.413 22.8863 17.7485 23.3731 18.256 23.5666C19.448 24.0209 20.2488 25.1833 20.2488 26.4594C20.2488 27.7355 19.448 28.8979 18.256 29.3521C17.7483 29.5456 17.413 30.0323 17.413 30.5755V34.3274C17.4129 35.0507 17.999 35.6368 18.7221 35.6368ZM36.3371 23.2794C37.482 24.6483 38.3609 26.6149 38.3609 27.9887C38.3609 29.782 37.3445 30.5845 36.3373 30.5845C35.3299 30.5845 34.3133 29.7817 34.3133 27.9887C34.3135 26.6148 35.1923 24.6481 36.3371 23.2794ZM26.3144 8.61849H28.7445V10.5954H26.3144V8.61849ZM24.3222 13.2139H30.7366V15.7141H24.3222V13.2139ZM51.8461 42.7675V43.2726C51.8461 43.9957 51.26 44.5818 50.5369 44.5818C49.8137 44.5818 49.2276 43.9957 49.2276 43.2726V42.7675C49.2276 42.0443 49.8137 41.4582 50.5369 41.4582C51.26 41.4582 51.8461 42.0443 51.8461 42.7675Z" fill="url(#paint0_radial)"/>
</g>
<defs>
<filter id="filter0_d" x="-3" y="0" width="80" height="80" filterUnits="userSpaceOnUse" color-interpolation-filters="sRGB">
<feFlood flood-opacity="0" result="BackgroundImageFix"/>
<feColorMatrix in="SourceAlpha" type="matrix" values="0 0 0 0 0 0 0 0 0 0 0 0 0 0 0 0 0 0 127 0"/>
<feOffset dy="4"/>
<feGaussianBlur stdDeviation="5"/>
<feColorMatrix type="matrix" values="0 0 0 0 0 0 0 0 0 0 0 0 0 0 0 0 0 0 0.15 0"/>
<feBlend mode="normal" in2="BackgroundImageFix" result="effect1_dropShadow"/>
<feBlend mode="normal" in="SourceGraphic" in2="effect1_dropShadow" result="shape"/>
</filter>
<radialGradient id="paint0_radial" cx="0" cy="0" r="1" gradientUnits="userSpaceOnUse" gradientTransform="translate(52.1083 35.4118) rotate(158.861) scale(32.6218 197.106)">
<stop stop-color="#B772EE"/>
<stop offset="1" stop-color="#7041EE"/>
</radialGradient>
</defs>
</svg>
