<svg width="85" height="73" viewBox="0 0 85 73" fill="none" xmlns="http://www.w3.org/2000/svg">
<g filter="url(#filter0_d)">
<path d="M73.7077 51.5542H69.214L70.399 37.4012C70.4293 37.0409 70.3071 36.6846 70.0625 36.4185C69.8178 36.1525 69.4728 36.001 69.1113 36.001H68.295V27.8785C68.295 27.1646 67.7165 26.5862 67.0027 26.5862H55.0151L55.1285 24.5514H55.8117C56.5256 24.5514 57.104 23.973 57.104 23.2591V19.5744C57.104 18.8606 56.5256 18.2821 55.8117 18.2821H52.6827L54.8964 12.6926L64.3823 9.15968C65.051 8.9107 65.3911 8.16634 65.1421 7.49763C64.8935 6.82875 64.1493 6.48845 63.4803 6.7376L53.4556 10.4711C53.1124 10.5988 52.8398 10.866 52.7052 11.2063L49.9025 18.2821H33.2476C32.5338 18.2821 31.9553 18.8606 31.9553 19.5744V23.2591C31.9553 23.973 32.5338 24.5514 33.2476 24.5514H33.9379L34.2118 28.9964C33.1585 28.7644 32.0594 28.6388 30.9275 28.6388C23.7836 28.6388 17.8872 33.5402 17.1672 39.805H15.8883C15.1745 39.805 14.596 40.3834 14.596 41.0973V44.9486C14.596 45.541 14.9948 46.039 15.5384 46.1916C15.4408 46.5226 15.3876 46.8736 15.3876 47.2373C15.3876 48.5639 16.0889 49.7216 17.1258 50.3385C17.1551 50.7468 17.2089 51.1523 17.2816 51.5542H11.2923C10.5784 51.5542 10 52.1328 10 52.8465V57.0514C10 57.7653 10.5784 58.3437 11.2923 58.3437H73.7077C74.4216 58.3437 75 57.7653 75 57.0514V52.8465C75 52.1328 74.4216 51.5542 73.7077 51.5542ZM47.3702 37.4015L48.5572 51.5544H44.5578C44.639 51.1504 44.6955 50.7487 44.7267 50.3402C45.7646 49.7237 46.4673 48.5651 46.4673 47.2375C46.4673 46.8736 46.4122 46.5233 46.3134 46.1925C46.8583 46.0409 47.2587 45.5424 47.2587 44.9488V41.0975C47.2587 40.3836 46.6803 39.8052 45.9664 39.8052H44.6836C44.1772 35.3999 41.1133 31.6685 36.8533 29.8424L36.5271 24.5518H52.54L52.4266 26.5865H50.7668C50.053 26.5865 49.4745 27.1649 49.4745 27.8788V36.0014H48.6581C48.2967 36.0014 47.9514 36.1528 47.7069 36.4189C47.462 36.6847 47.3399 37.0412 47.3702 37.4015ZM67.383 38.5858C66.331 39.8777 63.2868 41.201 58.8846 41.201C54.4824 41.201 51.4378 39.8777 50.3858 38.5858H67.383ZM52.0591 36.0012V29.1709H53.5328V36.0012H52.0591ZM58.8846 43.7854C62.3515 43.7854 65.3644 43.0433 67.4352 41.8254L66.6203 51.5542H51.1504L50.335 41.8268C52.4052 43.0441 55.4187 43.7854 58.8846 43.7854ZM64.2367 29.1709H65.7104V36.0012H64.2367V29.1709ZM60.1786 29.1709H61.6523V36.0012H60.1786V29.1709ZM56.1172 29.1709H57.5909V36.0012H56.1172V29.1709ZM34.5399 20.8671H54.5194V21.9672H34.5399V20.8671ZM30.9275 31.2236C36.6317 31.2236 41.358 34.9691 42.0815 39.8052H19.7733C20.4968 34.9691 25.2231 31.2236 30.9275 31.2236ZM17.1806 43.6563V42.3896H44.6741V43.6563H17.1806ZM18.833 48.2279C18.3581 48.2279 17.9722 47.7837 17.9722 47.2375C17.9722 46.6911 18.3581 46.2468 18.833 46.2468H43.0221C43.4966 46.2468 43.8826 46.6911 43.8826 47.2375C43.8826 47.7837 43.4966 48.2279 43.0221 48.2279H18.833ZM42.0722 50.8125C42.0305 51.0573 41.9752 51.303 41.9069 51.5544H19.9177C19.8591 51.309 19.81 51.0618 19.7729 50.8125H42.0722ZM72.4154 55.7592H12.5846V54.1388H72.4154V55.7592Z" fill="url(#paint0_radial)"/>
<path d="M30.9267 35.0658C30.5871 35.0658 30.2548 34.928 30.0134 34.6867C29.7721 34.4472 29.6345 34.113 29.6345 33.7735C29.6345 33.4339 29.7721 33.0998 30.0134 32.8603C30.2546 32.6191 30.5871 32.4812 30.9267 32.4812C31.2677 32.4812 31.6001 32.6191 31.8415 32.8603C32.0812 33.0998 32.219 33.4339 32.219 33.7735C32.219 34.113 32.081 34.4472 31.8415 34.6867C31.6001 34.928 31.2677 35.0658 30.9267 35.0658Z" fill="url(#paint1_radial)"/>
<path d="M25.7732 37.0628C25.4336 37.0628 25.1013 36.9249 24.8599 36.6837C24.6186 36.4442 24.481 36.1117 24.481 35.7705C24.481 35.4311 24.6186 35.0985 24.8599 34.8573C25.1011 34.6161 25.4336 34.4782 25.7732 34.4782C26.1142 34.4782 26.447 34.6161 26.688 34.8573C26.9277 35.0968 27.0655 35.4311 27.0655 35.7705C27.0655 36.1115 26.9275 36.4442 26.688 36.6837C26.447 36.9249 26.1141 37.0628 25.7732 37.0628Z" fill="url(#paint2_radial)"/>
<path d="M36.0821 37.0628C35.741 37.0628 35.4084 36.9249 35.167 36.6837C34.9274 36.4442 34.7899 36.1117 34.7899 35.7705C34.7899 35.4311 34.9275 35.0985 35.167 34.8573C35.4083 34.6161 35.7408 34.4782 36.0821 34.4782C36.4214 34.4782 36.7538 34.6161 36.9952 34.8573C37.2349 35.0985 37.3744 35.4311 37.3744 35.7705C37.3744 36.1115 37.2347 36.4442 36.9952 36.6837C36.7538 36.9249 36.4214 37.0628 36.0821 37.0628Z" fill="url(#paint3_radial)"/>
</g>
<defs>
<filter id="filter0_d" x="0" y="-6" width="85" height="85" filterUnits="userSpaceOnUse" color-interpolation-filters="sRGB">
<feFlood flood-opacity="0" result="BackgroundImageFix"/>
<feColorMatrix in="SourceAlpha" type="matrix" values="0 0 0 0 0 0 0 0 0 0 0 0 0 0 0 0 0 0 127 0"/>
<feOffset dy="4"/>
<feGaussianBlur stdDeviation="5"/>
<feColorMatrix type="matrix" values="0 0 0 0 0 0 0 0 0 0 0 0 0 0 0 0 0 0 0.15 0"/>
<feBlend mode="normal" in2="BackgroundImageFix" result="effect1_dropShadow"/>
<feBlend mode="normal" in="SourceGraphic" in2="effect1_dropShadow" result="shape"/>
</filter>
<radialGradient id="paint0_radial" cx="0" cy="0" r="1" gradientUnits="userSpaceOnUse" gradientTransform="translate(61.371 31.9931) rotate(165.068) scale(39.3322 175.903)">
<stop stop-color="#B772EE"/>
<stop offset="1" stop-color="#7041EE"/>
</radialGradient>
<radialGradient id="paint1_radial" cx="0" cy="0" r="1" gradientUnits="userSpaceOnUse" gradientTransform="translate(31.6771 33.7482) rotate(161.461) scale(1.59385 8.63072)">
<stop stop-color="#B772EE"/>
<stop offset="1" stop-color="#7041EE"/>
</radialGradient>
<radialGradient id="paint2_radial" cx="0" cy="0" r="1" gradientUnits="userSpaceOnUse" gradientTransform="translate(26.5236 35.7452) rotate(161.461) scale(1.59385 8.63073)">
<stop stop-color="#B772EE"/>
<stop offset="1" stop-color="#7041EE"/>
</radialGradient>
<radialGradient id="paint3_radial" cx="0" cy="0" r="1" gradientUnits="userSpaceOnUse" gradientTransform="translate(36.8325 35.7452) rotate(161.461) scale(1.59385 8.63072)">
<stop stop-color="#B772EE"/>
<stop offset="1" stop-color="#7041EE"/>
</radialGradient>
</defs>
</svg>
