<svg width="60" height="60" viewBox="0 0 60 60" fill="none" xmlns="http://www.w3.org/2000/svg">
<g clip-path="url(#clip0)">
<mask id="path-1-outside-1" maskUnits="userSpaceOnUse" x="6.91736" y="-1" width="46" height="62" fill="black">
<rect fill="white" x="6.91736" y="-1" width="46" height="62"/>
<path d="M51.4967 31.6144C51.1413 31.4664 50.739 31.5441 50.4654 31.8215L48.7747 33.5091V21.3906C48.7747 17.999 46.7561 14.8931 43.696 13.4684V5.12095C43.8135 4.96631 43.9164 4.79637 43.9164 4.58644V0.948523C43.9164 0.424199 43.495 0 42.9689 0H42.7485H37.2854H37.0586C36.5358 0 36.1132 0.424199 36.1132 0.948523V4.58644C36.1132 4.79841 36.2194 4.97446 36.3379 5.13064V13.4666C33.2737 14.8867 31.2597 17.9916 31.2597 21.389V32.3693L30.7059 31.8179C30.5339 31.6462 30.2725 31.5678 30.0136 31.5606V24.387C30.0136 23.0489 29.4157 21.869 28.5 21.0313C29.3877 20.5205 30.0136 19.5985 30.0136 18.505C30.0136 16.8806 28.6883 15.5542 27.0639 15.5542H13.7817C12.1517 15.5542 10.8253 16.879 10.8253 18.505C10.8253 19.5985 11.4513 20.5182 12.3395 21.0293C11.423 21.869 10.8253 23.0489 10.8253 24.387V33.1074L9.53339 31.8159C9.25925 31.5413 8.85595 31.4625 8.5013 31.6106C8.14793 31.7514 7.91736 32.0954 7.91736 32.4844V59.0497C7.91736 59.5745 8.34156 60.0003 8.86384 60.0003H51.0964C51.6182 60.0003 52.0399 59.5786 52.0439 59.0538L52.0827 32.4844C52.0827 32.1046 51.8488 31.7573 51.4967 31.6144ZM50.153 58.1121H9.81109V34.7692L10.8276 35.7861L11.7741 36.7358L12.7196 37.6813L13.4403 38.4041C13.7958 38.7554 14.4235 38.7554 14.7779 38.4041L19.4082 33.7708L24.0384 38.4041C24.3938 38.7554 25.0226 38.7554 25.3762 38.4041L28.1186 35.6576L29.0646 34.7081L29.9927 33.783L30.0101 33.8024L31.2602 35.0482L33.1507 36.9369L34.3718 38.156L34.6136 38.398C34.969 38.7613 35.5978 38.7501 35.9501 38.398L36.1962 38.156L40.5824 33.7616L44.9737 38.156L45.2155 38.398C45.5709 38.7501 46.1997 38.7501 46.552 38.398L46.7938 38.156H46.8756V38.0772L48.7686 36.1792L50.1785 34.7692L50.153 58.1121ZM12.7176 18.505C12.7176 17.9211 13.194 17.4492 13.78 17.4492H27.0618C27.6468 17.4492 28.1202 17.9208 28.1202 18.505C28.1202 19.0889 27.647 19.5636 27.0618 19.5636H13.7797C13.1958 19.5651 12.7176 19.0889 12.7176 18.505ZM15.4118 21.6935H25.4297C26.9143 21.6935 28.1222 22.9014 28.1222 24.389V27.1574H12.7196V24.389C12.7176 22.9014 13.9231 21.6935 15.4118 21.6935ZM12.7176 29.045H28.1202V32.9795L24.708 36.3924L20.134 31.8154C19.7784 31.462 19.04 31.462 18.6838 31.8154L14.1084 36.3924L12.7178 35.0029V29.045H12.7176ZM38.2311 1.88991H41.8053V3.63817H38.2311V1.88991ZM33.1525 21.3865C33.1525 18.5529 34.9453 15.9774 37.6143 14.9794C37.9891 14.8406 38.2311 14.489 38.2311 14.0928V5.53267H41.8053V14.0926C41.8053 14.4887 42.0514 14.8406 42.4188 14.9774C45.0909 15.9809 46.8837 18.5544 46.8837 21.3865V22.4509H33.1525V21.3865ZM33.1525 24.3449H46.8837V35.4024L45.8911 36.3927L41.3172 31.8157C40.9577 31.4623 40.2112 31.4623 39.8601 31.8157L35.2892 36.3927L33.1586 34.261V24.3452H33.1525V24.3449Z"/>
</mask>
<path d="M51.4967 31.6144C51.1413 31.4664 50.739 31.5441 50.4654 31.8215L48.7747 33.5091V21.3906C48.7747 17.999 46.7561 14.8931 43.696 13.4684V5.12095C43.8135 4.96631 43.9164 4.79637 43.9164 4.58644V0.948523C43.9164 0.424199 43.495 0 42.9689 0H42.7485H37.2854H37.0586C36.5358 0 36.1132 0.424199 36.1132 0.948523V4.58644C36.1132 4.79841 36.2194 4.97446 36.3379 5.13064V13.4666C33.2737 14.8867 31.2597 17.9916 31.2597 21.389V32.3693L30.7059 31.8179C30.5339 31.6462 30.2725 31.5678 30.0136 31.5606V24.387C30.0136 23.0489 29.4157 21.869 28.5 21.0313C29.3877 20.5205 30.0136 19.5985 30.0136 18.505C30.0136 16.8806 28.6883 15.5542 27.0639 15.5542H13.7817C12.1517 15.5542 10.8253 16.879 10.8253 18.505C10.8253 19.5985 11.4513 20.5182 12.3395 21.0293C11.423 21.869 10.8253 23.0489 10.8253 24.387V33.1074L9.53339 31.8159C9.25925 31.5413 8.85595 31.4625 8.5013 31.6106C8.14793 31.7514 7.91736 32.0954 7.91736 32.4844V59.0497C7.91736 59.5745 8.34156 60.0003 8.86384 60.0003H51.0964C51.6182 60.0003 52.0399 59.5786 52.0439 59.0538L52.0827 32.4844C52.0827 32.1046 51.8488 31.7573 51.4967 31.6144ZM50.153 58.1121H9.81109V34.7692L10.8276 35.7861L11.7741 36.7358L12.7196 37.6813L13.4403 38.4041C13.7958 38.7554 14.4235 38.7554 14.7779 38.4041L19.4082 33.7708L24.0384 38.4041C24.3938 38.7554 25.0226 38.7554 25.3762 38.4041L28.1186 35.6576L29.0646 34.7081L29.9927 33.783L30.0101 33.8024L31.2602 35.0482L33.1507 36.9369L34.3718 38.156L34.6136 38.398C34.969 38.7613 35.5978 38.7501 35.9501 38.398L36.1962 38.156L40.5824 33.7616L44.9737 38.156L45.2155 38.398C45.5709 38.7501 46.1997 38.7501 46.552 38.398L46.7938 38.156H46.8756V38.0772L48.7686 36.1792L50.1785 34.7692L50.153 58.1121ZM12.7176 18.505C12.7176 17.9211 13.194 17.4492 13.78 17.4492H27.0618C27.6468 17.4492 28.1202 17.9208 28.1202 18.505C28.1202 19.0889 27.647 19.5636 27.0618 19.5636H13.7797C13.1958 19.5651 12.7176 19.0889 12.7176 18.505ZM15.4118 21.6935H25.4297C26.9143 21.6935 28.1222 22.9014 28.1222 24.389V27.1574H12.7196V24.389C12.7176 22.9014 13.9231 21.6935 15.4118 21.6935ZM12.7176 29.045H28.1202V32.9795L24.708 36.3924L20.134 31.8154C19.7784 31.462 19.04 31.462 18.6838 31.8154L14.1084 36.3924L12.7178 35.0029V29.045H12.7176ZM38.2311 1.88991H41.8053V3.63817H38.2311V1.88991ZM33.1525 21.3865C33.1525 18.5529 34.9453 15.9774 37.6143 14.9794C37.9891 14.8406 38.2311 14.489 38.2311 14.0928V5.53267H41.8053V14.0926C41.8053 14.4887 42.0514 14.8406 42.4188 14.9774C45.0909 15.9809 46.8837 18.5544 46.8837 21.3865V22.4509H33.1525V21.3865ZM33.1525 24.3449H46.8837V35.4024L45.8911 36.3927L41.3172 31.8157C40.9577 31.4623 40.2112 31.4623 39.8601 31.8157L35.2892 36.3927L33.1586 34.261V24.3452H33.1525V24.3449Z" fill="url(#paint0_radial)"/>
<path d="M51.4967 31.6144C51.1413 31.4664 50.739 31.5441 50.4654 31.8215L48.7747 33.5091V21.3906C48.7747 17.999 46.7561 14.8931 43.696 13.4684V5.12095C43.8135 4.96631 43.9164 4.79637 43.9164 4.58644V0.948523C43.9164 0.424199 43.495 0 42.9689 0H42.7485H37.2854H37.0586C36.5358 0 36.1132 0.424199 36.1132 0.948523V4.58644C36.1132 4.79841 36.2194 4.97446 36.3379 5.13064V13.4666C33.2737 14.8867 31.2597 17.9916 31.2597 21.389V32.3693L30.7059 31.8179C30.5339 31.6462 30.2725 31.5678 30.0136 31.5606V24.387C30.0136 23.0489 29.4157 21.869 28.5 21.0313C29.3877 20.5205 30.0136 19.5985 30.0136 18.505C30.0136 16.8806 28.6883 15.5542 27.0639 15.5542H13.7817C12.1517 15.5542 10.8253 16.879 10.8253 18.505C10.8253 19.5985 11.4513 20.5182 12.3395 21.0293C11.423 21.869 10.8253 23.0489 10.8253 24.387V33.1074L9.53339 31.8159C9.25925 31.5413 8.85595 31.4625 8.5013 31.6106C8.14793 31.7514 7.91736 32.0954 7.91736 32.4844V59.0497C7.91736 59.5745 8.34156 60.0003 8.86384 60.0003H51.0964C51.6182 60.0003 52.0399 59.5786 52.0439 59.0538L52.0827 32.4844C52.0827 32.1046 51.8488 31.7573 51.4967 31.6144ZM50.153 58.1121H9.81109V34.7692L10.8276 35.7861L11.7741 36.7358L12.7196 37.6813L13.4403 38.4041C13.7958 38.7554 14.4235 38.7554 14.7779 38.4041L19.4082 33.7708L24.0384 38.4041C24.3938 38.7554 25.0226 38.7554 25.3762 38.4041L28.1186 35.6576L29.0646 34.7081L29.9927 33.783L30.0101 33.8024L31.2602 35.0482L33.1507 36.9369L34.3718 38.156L34.6136 38.398C34.969 38.7613 35.5978 38.7501 35.9501 38.398L36.1962 38.156L40.5824 33.7616L44.9737 38.156L45.2155 38.398C45.5709 38.7501 46.1997 38.7501 46.552 38.398L46.7938 38.156H46.8756V38.0772L48.7686 36.1792L50.1785 34.7692L50.153 58.1121ZM12.7176 18.505C12.7176 17.9211 13.194 17.4492 13.78 17.4492H27.0618C27.6468 17.4492 28.1202 17.9208 28.1202 18.505C28.1202 19.0889 27.647 19.5636 27.0618 19.5636H13.7797C13.1958 19.5651 12.7176 19.0889 12.7176 18.505ZM15.4118 21.6935H25.4297C26.9143 21.6935 28.1222 22.9014 28.1222 24.389V27.1574H12.7196V24.389C12.7176 22.9014 13.9231 21.6935 15.4118 21.6935ZM12.7176 29.045H28.1202V32.9795L24.708 36.3924L20.134 31.8154C19.7784 31.462 19.04 31.462 18.6838 31.8154L14.1084 36.3924L12.7178 35.0029V29.045H12.7176ZM38.2311 1.88991H41.8053V3.63817H38.2311V1.88991ZM33.1525 21.3865C33.1525 18.5529 34.9453 15.9774 37.6143 14.9794C37.9891 14.8406 38.2311 14.489 38.2311 14.0928V5.53267H41.8053V14.0926C41.8053 14.4887 42.0514 14.8406 42.4188 14.9774C45.0909 15.9809 46.8837 18.5544 46.8837 21.3865V22.4509H33.1525V21.3865ZM33.1525 24.3449H46.8837V35.4024L45.8911 36.3927L41.3172 31.8157C40.9577 31.4623 40.2112 31.4623 39.8601 31.8157L35.2892 36.3927L33.1586 34.261V24.3452H33.1525V24.3449Z" stroke="url(#paint1_radial)" mask="url(#path-1-outside-1)"/>
<path d="M16.3657 52.8377V48.5443V47.5958V46.6503V42.6736C16.3657 42.0163 15.8303 41.4784 15.1698 41.4784C14.5099 41.4784 13.9733 42.016 13.9733 42.6736V46.3421V47.3538V48.3023V54.0373C13.9733 54.6943 14.5091 55.235 15.1698 55.235H44.805C45.4661 55.235 45.9971 54.7007 46.0025 54.0393L46.0025 54.0378L46.0148 48.5449V48.5447L46.0178 46.6576L46.0178 46.6571L46.0324 42.6837L46.0323 42.6807C46.0269 42.0223 45.4912 41.4845 44.8328 41.4845H44.8285C44.1686 41.4845 43.6333 42.017 43.633 42.6754L16.3657 52.8377ZM16.3657 52.8377H43.6103L43.6218 48.5438V48.5437L43.6259 46.6563V46.6562L43.633 42.6759L16.3657 52.8377Z" fill="url(#paint2_radial)" stroke="url(#paint3_radial)" stroke-width="0.5"/>
</g>
<defs>
<radialGradient id="paint0_radial" cx="0" cy="0" r="1" gradientUnits="userSpaceOnUse" gradientTransform="translate(42.8222 29.4119) rotate(155.506) scale(28.3762 192.309)">
<stop stop-color="#B772EE"/>
<stop offset="1" stop-color="#7041EE"/>
</radialGradient>
<radialGradient id="paint1_radial" cx="0" cy="0" r="1" gradientUnits="userSpaceOnUse" gradientTransform="translate(42.8222 29.4119) rotate(155.506) scale(28.3762 192.309)">
<stop stop-color="#B772EE"/>
<stop offset="1" stop-color="#7041EE"/>
</radialGradient>
<radialGradient id="paint2_radial" cx="0" cy="0" r="1" gradientUnits="userSpaceOnUse" gradientTransform="translate(39.1651 48.2267) rotate(171.981) scale(18.6341 46.235)">
<stop stop-color="#B772EE"/>
<stop offset="1" stop-color="#7041EE"/>
</radialGradient>
<radialGradient id="paint3_radial" cx="0" cy="0" r="1" gradientUnits="userSpaceOnUse" gradientTransform="translate(39.1651 48.2267) rotate(171.981) scale(18.6341 46.235)">
<stop stop-color="#B772EE"/>
<stop offset="1" stop-color="#7041EE"/>
</radialGradient>
<clipPath id="clip0">
<rect width="60" height="60" fill="white"/>
</clipPath>
</defs>
</svg>
