<svg width="64" height="38" viewBox="0 0 64 38" fill="none" xmlns="http://www.w3.org/2000/svg">
<g clip-path="url(#clip0)">
<g filter="url(#filter0_d)">
<path d="M16.135 26.4717C12.94 26.4717 10.3575 28.9275 10.3575 31.9604C10.3575 34.9956 12.94 37.4514 16.135 37.4514C19.3275 37.4514 21.9125 34.9956 21.9125 31.9604C21.9125 28.9275 19.3275 26.4717 16.135 26.4717ZM16.135 34.0646C14.9225 34.0646 13.9225 33.1146 13.9225 31.9604C13.9225 30.8085 14.9225 29.8585 16.135 29.8585C17.3475 29.8585 18.3475 30.8085 18.3475 31.9604C18.3475 33.1146 17.3475 34.0646 16.135 34.0646ZM52.51 26.239C49.3175 26.239 46.7325 28.6924 46.7325 31.7276C46.7325 34.7605 49.3175 37.2162 52.51 37.2162C55.705 37.2162 58.29 34.7605 58.29 31.7276C58.29 28.6924 55.705 26.239 52.51 26.239ZM52.51 33.8295C51.2975 33.8295 50.2975 32.8795 50.2975 31.7276C50.2975 30.5757 51.2975 29.6257 52.51 29.6257C53.725 29.6257 54.725 30.5757 54.725 31.7276C54.725 32.8795 53.725 33.8295 52.51 33.8295ZM0.5 0.474998V28.842C0.5 29.906 1.38 30.875 2.5 30.875H8C8.23 30.875 8.4575 30.5995 8.5 30.4C9.13 26.9657 12.3325 24.5955 16.135 24.5955C19.9375 24.5955 23.09 26.9752 23.72 30.4095C23.7625 30.6304 24.02 30.875 24.25 30.875H32.5V0.474998H0.5ZM16.2725 20.0189C11.855 20.0189 8.265 16.6084 8.265 12.4117C8.265 8.22225 11.855 4.81887 16.2725 4.81887C20.675 4.81887 24.265 8.22225 24.28 12.4117C24.28 16.6084 20.69 20.0189 16.2725 20.0189ZM16.2725 6.31037C12.7275 6.31037 9.8475 9.04637 9.8475 12.4117C9.8475 15.7795 12.7275 18.5155 16.2725 18.5155C19.7775 18.5155 22.6575 15.7795 22.6975 12.4117C22.6975 9.04637 19.8175 6.31037 16.2725 6.31037ZM20.3275 11.419C20.275 11.5734 20.16 11.7016 19.9975 11.78L16.3375 13.4425C16.2325 13.4852 16.125 13.5161 16.0275 13.5161C15.9375 13.5161 15.84 13.4924 15.73 13.4425C15.5175 13.3332 15.3825 13.1171 15.3825 12.8915V8.72575C15.3825 8.35762 15.705 8.13675 16.015 8.13675C16.175 8.13675 16.31 8.1795 16.4275 8.27925L16.435 8.284C16.55 8.40037 16.615 8.55475 16.615 8.72575V11.9106L19.45 10.7065C19.805 10.5355 20.115 10.6946 20.2625 10.9274C20.3475 11.0817 20.365 11.2599 20.3275 11.419ZM63 26.8375H61.75V21.6125C61.75 19.855 60.37 18.525 58.5 18.525H52.5C52.375 18.525 52.225 18.4609 52.14 18.3825L42.79 9.73512C42.37 9.33612 41.86 9.044 41.25 9.025H34.5V30.875H44.5C44.73 30.875 44.9575 30.5995 45 30.4C45.63 26.9657 48.7075 24.3604 52.51 24.3604C56.315 24.3604 59.465 26.9752 60.095 30.4095C60.1375 30.6304 60.52 30.875 60.75 30.875H61.25C62.4475 30.875 63.5 29.8514 63.5 28.7327V27.2555C63.5 27.037 63.2525 26.8375 63 26.8375ZM47.75 18.525H37.5C37.2475 18.525 37 18.2899 37 18.05L36.99 11.9106C36.99 11.6707 37.2475 11.4 37.5 11.4H40.75C40.875 11.4 41.13 11.5306 41.235 11.6114L48 17.8125C48.2525 18.1117 48.15 18.525 47.75 18.525Z" fill="url(#paint0_radial)"/>
</g>
</g>
<defs>
<filter id="filter0_d" x="-9.5" y="-5.525" width="83" height="56.9764" filterUnits="userSpaceOnUse" color-interpolation-filters="sRGB">
<feFlood flood-opacity="0" result="BackgroundImageFix"/>
<feColorMatrix in="SourceAlpha" type="matrix" values="0 0 0 0 0 0 0 0 0 0 0 0 0 0 0 0 0 0 127 0"/>
<feOffset dy="4"/>
<feGaussianBlur stdDeviation="5"/>
<feColorMatrix type="matrix" values="0 0 0 0 0 0 0 0 0 0 0 0 0 0 0 0 0 0 0.15 0"/>
<feBlend mode="normal" in2="BackgroundImageFix" result="effect1_dropShadow"/>
<feBlend mode="normal" in="SourceGraphic" in2="effect1_dropShadow" result="shape"/>
</filter>
<radialGradient id="paint0_radial" cx="0" cy="0" r="1" gradientUnits="userSpaceOnUse" gradientTransform="translate(50.2903 18.6007) rotate(168.865) scale(37.5414 127.783)">
<stop stop-color="#B772EE"/>
<stop offset="1" stop-color="#7041EE"/>
</radialGradient>
<clipPath id="clip0">
<rect width="64" height="38" fill="white"/>
</clipPath>
</defs>
</svg>
