<svg width="48" height="48" viewBox="0 0 48 48" fill="none" xmlns="http://www.w3.org/2000/svg">
<path d="M46.9473 0.134821H1.05272C0.471188 0.134821 0 0.606102 0 1.18754V8.99757C0 9.57891 0.471188 10.0503 1.05272 10.0503H5.89294C5.64141 10.2553 5.3985 10.4743 5.16544 10.7072C3.70041 12.1721 2.89359 14.1196 2.89359 16.1913C2.89359 18.263 3.70041 20.2104 5.16525 21.6752C5.556 22.0659 5.98884 22.3991 6.45272 22.6726V46.8126C6.45272 47.3939 6.92391 47.8653 7.50544 47.8653H40.4937C41.0753 47.8653 41.5464 47.394 41.5464 46.8126V22.6714C42.0066 22.4013 42.4401 22.0694 42.8347 21.675C45.8586 18.6511 45.8586 13.731 42.8347 10.707C42.6017 10.474 42.3587 10.255 42.1072 10.05H46.9473C47.5288 10.05 48 9.57873 48 8.99729V1.18754C48 0.606008 47.5288 0.134821 46.9473 0.134821ZM13.4604 45.7597H12.1541V31.7559C12.1541 31.3958 12.4472 31.1027 12.8072 31.1027C13.1674 31.1027 13.4604 31.3958 13.4604 31.7559V45.7597ZM20.922 45.7597H19.6157V31.7559C19.6157 31.3958 19.9088 31.1027 20.2689 31.1027C20.6289 31.1027 20.922 31.3958 20.922 31.7559V45.7597ZM28.3836 45.7597H27.0774V31.7559C27.0774 31.3958 27.3705 31.1027 27.7305 31.1027C28.0905 31.1027 28.3836 31.3958 28.3836 31.7559V45.7597ZM35.8453 45.7597H34.539V31.7559C34.539 31.3958 34.8321 31.1027 35.1921 31.1027C35.5522 31.1027 35.8453 31.3958 35.8453 31.7559V45.7597ZM39.4413 45.7599H37.9508V31.7559C37.9508 30.2349 36.7133 28.9974 35.1922 28.9974C33.6712 28.9974 32.4338 30.2349 32.4338 31.7559V45.7598H30.4893V31.7559C30.4893 30.2349 29.2519 28.9974 27.7308 28.9974C26.2097 28.9974 24.9724 30.2349 24.9724 31.7559V45.7598H23.0278V31.7559C23.0278 30.2349 21.7904 28.9974 20.2694 28.9974C18.7483 28.9974 17.5108 30.2349 17.5108 31.7559V45.7598H15.5662V31.7559C15.5662 30.2349 14.3288 28.9974 12.8077 28.9974C11.2866 28.9974 10.0492 30.2349 10.0492 31.7559V45.7598H8.55834V26.3811H39.4413V45.7599ZM39.4413 24.2756H8.55834V23.4512C8.93194 23.518 9.31388 23.5539 9.70153 23.5539C11.415 23.5539 13.026 22.8867 14.2376 21.6751C14.805 21.1076 15.2167 20.4429 15.4748 19.7344H32.5251C32.7833 20.4429 33.195 21.1076 33.7625 21.6751C35.3043 23.2169 37.4421 23.8069 39.4412 23.4478V24.2756H39.4413ZM41.3459 20.1864C39.6655 21.8667 36.9314 21.8664 35.2513 20.1864C33.9891 18.9243 33.9891 16.8705 35.2511 15.6084C36.1789 14.6807 37.6884 14.681 38.6161 15.6084C39.0271 16.0195 39.6937 16.0194 40.1048 15.6084C40.5158 15.1974 40.5158 14.5308 40.1047 14.1197C38.3562 12.3712 35.5112 12.3714 33.7625 14.1197C32.7891 15.0931 32.2709 16.3518 32.2072 17.629H15.7927C15.7292 16.3518 15.2108 15.093 14.2374 14.1197C12.4887 12.3713 9.64397 12.3713 7.89525 14.1197C7.48416 14.5308 7.48416 15.1974 7.89525 15.6084C8.30634 16.0194 8.97291 16.0195 9.38391 15.6084C10.3117 14.6808 11.8209 14.6808 12.7486 15.6084C14.0108 16.8705 14.0108 18.9243 12.7486 20.1865C11.9347 21.0005 10.8523 21.4488 9.70125 21.4488C8.55019 21.4488 7.46803 21.0005 6.65391 20.1865C5.58666 19.1194 4.99894 17.7005 4.99894 16.1913C4.99894 14.6822 5.58675 13.2633 6.654 12.196C8.08125 10.7686 9.98269 10.0083 11.9982 10.0523C12.0061 10.0524 12.0138 10.0525 12.0217 10.0525H35.978C35.9858 10.0525 35.9935 10.0524 36.0014 10.0523C38.0209 10.0074 39.9182 10.7686 41.3456 12.196C43.5489 14.3988 43.5489 17.9834 41.3459 20.1864ZM45.8947 7.94476H2.10534V2.24016H45.8946V7.94476H45.8947Z" fill="url(#paint0_radial)"/>
<defs>
<radialGradient id="paint0_radial" cx="0" cy="0" r="1" gradientUnits="userSpaceOnUse" gradientTransform="translate(37.9355 23.5321) rotate(161.558) scale(29.5839 159.479)">
<stop stop-color="#B772EE"/>
<stop offset="1" stop-color="#7041EE"/>
</radialGradient>
</defs>
</svg>
