<svg width="60" height="60" viewBox="0 0 60 60" fill="none" xmlns="http://www.w3.org/2000/svg">
<g clip-path="url(#clip0)">
<g filter="url(#filter0_d)">
<path d="M57.9922 8.88727L58.0277 8.85283C60.1069 6.77211 60.174 3.45526 58.1771 1.45796C57.237 0.517887 55.9723 0 54.6172 0C53.1814 0 51.8189 0.570883 50.7818 1.60733L46.2178 6.48432L29.8941 1.59749L26.5106 4.98187C26.0842 5.40718 25.8496 5.97404 25.8496 6.57645C25.8496 7.17931 26.0842 7.74528 26.5106 8.17059L26.6591 8.31907L38.4497 14.8079L36.7246 16.6799C34.4379 15.1992 31.8901 14.1088 29.1553 13.4863C27.4281 13.0925 25.6616 12.8933 23.9051 12.8933C23.0189 12.8933 22.1444 12.9465 21.2812 13.0418L21.1994 12.951C21.1609 12.9854 21.1175 13.0243 21.0753 13.0639C11.2759 14.2262 3.21018 21.3628 0.965553 31.2168C-0.432473 37.3498 0.64221 43.6602 3.99059 48.9846C7.33896 54.3086 12.5614 58.0101 18.6949 59.407C20.4221 59.8008 22.1889 60 23.9451 60C34.9949 60 44.4285 52.4667 46.8853 41.6801C47.324 39.7557 47.5188 37.8136 47.4763 35.8907C47.6105 35.3979 47.5872 34.8606 47.3788 34.2754C47.0456 30.6341 45.8636 27.0961 43.8603 23.9116C43.6168 23.5247 43.3605 23.1479 43.0966 22.7799L44.848 21.1656L51.3895 33.0509L51.5394 33.2002C51.9653 33.6246 52.5311 33.8588 53.1319 33.8588C53.7328 33.8588 54.2972 33.6251 54.7241 33.1998L58.1096 29.815L53.1903 13.3799L57.9922 8.88727ZM12.1542 53.3513C9.91543 51.7932 7.99012 49.7881 6.49393 47.409C3.83272 43.1774 2.8202 38.2338 3.57489 33.3404C4.89353 33.6958 6.22492 34.2208 6.7361 34.586C6.71687 34.7219 6.69563 34.8601 6.67439 34.9976C6.47671 36.2807 6.17797 38.2188 7.75779 39.3688C9.14039 40.3744 10.4058 39.4339 10.983 38.9478C11.2146 39.1345 11.4671 39.3203 11.7267 39.5121C12.1319 39.8109 12.8465 40.3384 13.1035 40.6593C13.0221 40.9428 12.9024 41.2778 12.7855 41.6043C12.3266 42.8858 11.8519 44.2103 12.7352 45.1409C13.0397 45.5155 13.9503 47.2373 14.1829 47.8574C14.1779 48.064 14.1931 48.299 14.2128 48.6051C14.2336 48.9207 14.2795 49.632 14.2325 49.9213C14.2314 49.9211 12.4382 52.1796 12.5418 52.7145L12.1542 53.3513ZM44.0016 41.0218C41.8529 50.4544 33.6059 57.0418 23.9451 57.0418C22.4091 57.0418 20.864 56.8674 19.3517 56.5228C17.4997 56.1013 15.7459 55.4334 14.1182 54.5555C15.5614 53.335 16.8105 51.3746 16.8293 51.3431C17.2669 50.6036 17.2419 49.6217 17.1641 48.4146C17.1513 48.2125 17.1366 48.039 17.1395 47.9276C17.1374 47.9971 17.1247 48.0524 17.1153 48.0917C17.3523 47.0423 15.9259 44.6264 15.2396 43.5973C15.3105 43.3252 15.4615 42.9044 15.5695 42.6016C15.7484 42.1018 15.9333 41.5853 16.0442 41.0951C16.4519 39.3221 14.8049 38.1074 13.482 37.132C13.1044 36.8536 12.7142 36.5656 12.5411 36.3822C11.9456 35.7543 10.9425 35.2698 9.47916 36.359C9.50532 36.0459 9.56011 35.6915 9.59745 35.4471C9.64664 35.1287 9.6945 34.8107 9.72513 34.5046C9.8953 32.7888 8.0429 31.4268 4.22896 30.4523C6.32085 23.5292 11.7752 18.3501 18.5583 16.546C18.2557 17.2848 18.0165 18.139 17.9067 19.1334C17.8432 19.7077 17.7609 20.2278 17.6882 20.6857C17.3988 22.514 17.0706 24.5862 19.6965 25.7555C21.1278 26.3948 22.1265 26.4999 22.9295 26.5847C23.2839 26.6215 23.5806 26.6531 23.8888 26.7231C23.978 27.1676 23.9212 28.0811 23.8982 28.4563C23.8657 28.9802 23.8306 29.5451 23.9981 30.0189C24.2146 31.2148 25.2595 35.5844 29.3232 38.403C28.7514 38.744 27.9997 39.0931 27.3688 39.2143C27.0267 39.2798 26.6763 39.3236 26.3371 39.3661C24.9496 39.5401 23.0493 39.7771 22.2542 41.9688C21.9006 42.9375 22.13 43.6427 22.3847 44.0638C23.0176 45.1103 24.249 45.2753 25.1481 45.3956C25.293 45.4149 25.4965 45.4424 25.6189 45.4665C26.1754 45.8742 27.9124 47.0287 29.713 47.0287C30.5267 47.0287 31.3534 46.7925 32.0904 46.1458C32.3867 45.8945 33.7915 45.9108 34.4679 45.9195C35.8992 45.9363 37.251 45.9531 38.1134 45.081C38.537 44.6521 38.7532 44.0922 38.7384 43.4598C38.7078 42.2246 41.0725 40.8961 42.9725 39.8283C43.4309 39.571 43.8996 39.3064 44.3551 39.0318C44.2699 39.6962 44.1525 40.3603 44.0016 41.0218ZM44.488 35.2823C44.0591 35.8254 42.4971 36.7038 41.5235 37.2505C38.9795 38.6801 36.1186 40.2874 35.808 42.9448C35.4355 42.9748 34.8986 42.9674 34.5037 42.9632C32.9889 42.9464 31.2765 42.9243 30.1378 43.9254C29.6454 44.3576 28.147 43.6921 27.2913 43.0253C26.812 42.6512 26.2394 42.56 25.6316 42.4777C25.8648 42.4184 26.2018 42.3648 26.7043 42.3026C27.0719 42.2563 27.4889 42.2044 27.9256 42.1208C29.2517 41.8666 32.7069 40.4158 32.9949 38.4987C33.1148 37.7011 32.7297 36.9623 31.9878 36.569C27.586 34.2434 26.9107 29.5424 26.8845 29.3496L26.8328 28.9341C26.8382 28.8367 26.8447 28.7311 26.8501 28.6403C26.9377 27.2295 27.1005 24.6032 25.0283 23.9688C24.3411 23.7598 23.7562 23.6983 23.2394 23.6439C22.5232 23.569 21.9051 23.5039 20.9015 23.0558C20.5437 22.8966 20.4693 22.7915 20.4693 22.7915C20.3792 22.6066 20.5127 21.7647 20.6102 21.15C20.688 20.6589 20.7758 20.103 20.8472 19.4592C21.0388 17.7291 21.7358 16.6426 22.4008 15.9083C22.8986 15.8727 23.3995 15.8506 23.9058 15.8506C25.4413 15.8506 26.9865 16.025 28.4988 16.3696C30.7199 16.8758 32.8004 17.7345 34.6884 18.8899L34.5406 19.05C34.2812 19.3119 34.0446 19.5894 33.8321 19.8801L28.5442 18.5111L26.2255 20.8304C25.8355 21.2193 25.6206 21.7369 25.6206 22.2879C25.6206 22.8396 25.8351 23.3581 26.2251 23.7479L26.3912 23.9145L32.4822 27.0057L32.7011 27.2246L35.7923 33.3167L35.9589 33.4829C36.3482 33.8729 36.8668 34.0877 37.418 34.0877C37.9697 34.0877 38.4882 33.8729 38.876 33.484L41.1962 31.1647L39.7993 25.7682C40.0738 25.5656 40.335 25.3409 40.583 25.0958L40.8994 24.8045C41.0544 25.0285 41.21 25.2521 41.3565 25.4849C43.2424 28.4833 44.2977 31.8402 44.488 35.2823ZM54.7694 28.9704L53.3182 30.4216L45.6188 16.4308L38.5586 22.94L38.5168 22.98C38.1919 23.3038 37.8297 23.5657 37.4404 23.7573L36.3619 24.2897L37.9102 30.2684L37.6794 30.4992L35.1255 25.467L34.2411 24.5818L29.2094 22.029L29.4395 21.7989L35.3319 23.3244L35.8583 22.2282C36.0515 21.8275 36.3187 21.4543 36.6528 21.1196L43.1821 14.0373L29.2861 6.38951L30.7373 4.93782L47.1255 9.84343L52.8877 3.68447C53.3649 3.21577 53.9776 2.95795 54.6169 2.95795C55.1818 2.95795 55.7033 3.16792 56.0854 3.54941C56.9249 4.38885 56.8631 5.81885 55.9512 6.7464L49.8314 12.4707L54.7694 28.9704Z" fill="url(#paint0_radial)"/>
</g>
</g>
<defs>
<filter id="filter0_d" x="-9.63184" y="-6" width="79.2638" height="80" filterUnits="userSpaceOnUse" color-interpolation-filters="sRGB">
<feFlood flood-opacity="0" result="BackgroundImageFix"/>
<feColorMatrix in="SourceAlpha" type="matrix" values="0 0 0 0 0 0 0 0 0 0 0 0 0 0 0 0 0 0 127 0"/>
<feOffset dy="4"/>
<feGaussianBlur stdDeviation="5"/>
<feColorMatrix type="matrix" values="0 0 0 0 0 0 0 0 0 0 0 0 0 0 0 0 0 0 0.15 0"/>
<feBlend mode="normal" in2="BackgroundImageFix" result="effect1_dropShadow"/>
<feBlend mode="normal" in="SourceGraphic" in2="effect1_dropShadow" result="shape"/>
</filter>
<radialGradient id="paint0_radial" cx="0" cy="0" r="1" gradientUnits="userSpaceOnUse" gradientTransform="translate(47.2057 29.4118) rotate(161.246) scale(36.593 200.108)">
<stop stop-color="#B772EE"/>
<stop offset="1" stop-color="#7041EE"/>
</radialGradient>
<clipPath id="clip0">
<rect width="60" height="60" fill="white"/>
</clipPath>
</defs>
</svg>
